<svg width="32" height="32" viewBox="0 0 32 32" fill="none" xmlns="http://www.w3.org/2000/svg">
<path d="M27.175 14.5L25 12.3265V7C25 6.175 24.325 5.5 23.5 5.5H22C21.175 5.5 20.5 6.175 20.5 7V7.8295L17.5 4.8325C17.0905 4.4455 16.7155 4 16 4C15.2845 4 14.9095 4.4455 14.5 4.8325L4.825 14.5C4.357 14.9875 4 15.343 4 16C4 16.8445 4.648 17.5 5.5 17.5H7V26.5C7 27.325 7.675 28 8.5 28H11.5C12.3284 28 13 27.3284 13 26.5V20.5C13 19.675 13.675 19 14.5 19H17.5C18.325 19 19 19.675 19 20.5V26.5C19 27.3284 18.9216 28 19.75 28H23.5C24.325 28 25 27.325 25 26.5V17.5H26.5C27.352 17.5 28 16.8445 28 16C28 15.343 27.643 14.9875 27.175 14.5Z" stroke="white" stroke-width="2" stroke-linejoin="round"/>
</svg>
